<?xml version="1.0" encoding="utf-8"?>
<!-- Generator: Adobe Illustrator 21.0.0, SVG Export Plug-In . SVG Version: 6.00 Build 0)  -->
<svg version="1.1" baseProfile="tiny" id="圖層_1"
	 xmlns="http://www.w3.org/2000/svg" xmlns:xlink="http://www.w3.org/1999/xlink" x="0px" y="0px" viewBox="0 0 230.8 83.2"
	 overflow="scroll" xml:space="preserve">
<text transform="matrix(1 0 0 1 1 43.3385)" font-family="'KaiTi'" font-size="10px">阿彌陀佛三</text>
<text transform="matrix(1 0 0 1 62.9585 15.3512)" font-family="'KaiTi'" font-size="10px">一</text>
<text transform="matrix(1 0 0 1 72.9585 15.3512)" font-family="'KaiTi'" font-size="10px">、</text>
<text transform="matrix(1 0 0 1 82.9585 15.3512)" font-family="'KaiTi'" font-size="10px">因</text>
<text transform="matrix(1 0 0 1 92.9585 15.3512)" font-family="'KaiTi'" font-size="10px">位</text>
<text transform="matrix(1 0 0 1 102.9585 15.3512)" font-family="'KaiTi'" font-size="10px">二</text>
<text transform="matrix(1 0 0 1 62.9585 43.3512)" font-family="'KaiTi'" font-size="10px">二</text>
<text transform="matrix(1 0 0 1 72.9585 43.3512)" font-family="'KaiTi'" font-size="10px">、</text>
<text transform="matrix(1 0 0 1 82.9585 43.3512)" font-family="'KaiTi'" font-size="10px">中</text>
<text transform="matrix(1 0 0 1 92.9585 43.3512)" font-family="'KaiTi'" font-size="10px">間</text>
<text transform="matrix(1 0 0 1 102.9585 43.3512)" font-family="'KaiTi'" font-size="10px">二</text>
<text transform="matrix(1 0 0 1 62.9585 74.8512)" font-family="'KaiTi'" font-size="10px">三</text>
<text transform="matrix(1 0 0 1 72.9585 74.8512)" font-family="'KaiTi'" font-size="10px">、</text>
<text transform="matrix(1 0 0 1 82.9585 74.8512)" font-family="'KaiTi'" font-size="10px">果</text>
<text transform="matrix(1 0 0 1 92.9585 74.8512)" font-family="'KaiTi'" font-size="10px"> </text>
<text transform="matrix(1 0 0 1 102.9585 74.8512)" font-family="'KaiTi'" font-size="10px">上</text>
<text transform="matrix(1 0 0 1 112.9585 74.8512)" font-family="'KaiTi'" font-size="5px"> </text>
<text transform="matrix(1 0 0 1 115.4585 74.8512)" font-family="'KaiTi'" font-size="10px">—</text>
<text transform="matrix(1 0 0 1 125.4585 74.8512)" font-family="'KaiTi'" font-size="5px"> </text>
<text transform="matrix(1 0 0 1 127.9585 74.8512)" font-family="'KaiTi'" font-size="10px">阿</text>
<text transform="matrix(1 0 0 1 137.9585 74.8512)" font-family="'KaiTi'" font-size="10px"> </text>
<text transform="matrix(1 0 0 1 147.9585 74.8512)" font-family="'KaiTi'" font-size="10px">彌</text>
<text transform="matrix(1 0 0 1 157.9585 74.8512)" font-family="'KaiTi'" font-size="10px"> </text>
<text transform="matrix(1 0 0 1 167.9585 74.8512)" font-family="'KaiTi'" font-size="10px">陀</text>
<text transform="matrix(1 0 0 1 177.9585 74.8512)" font-family="'KaiTi'" font-size="10px"> </text>
<text transform="matrix(1 0 0 1 187.9585 74.8512)" font-family="'KaiTi'" font-size="10px">佛</text>
<text transform="matrix(1 0 0 1 122.1245 8.5936)" font-family="'KaiTi'" font-size="10px">思惟時節五劫</text>
<text transform="matrix(1 0 0 1 122.1245 22.5936)" font-family="'KaiTi'" font-size="10px">思惟誓願四十八願</text>
<text transform="matrix(1 0 0 1 122.1245 36.5936)" font-family="'KaiTi'" font-size="10px">修行時節兆載永劫</text>
<text transform="matrix(1 0 0 1 122.1245 50.5936)" font-family="'KaiTi'" font-size="10px">修行功德六度萬行</text>
<text transform="matrix(1 0 0 1 210.8352 43.3383)" font-family="'KaiTi'" font-size="10px">定善</text>
<text transform="matrix(1 0 0 1 210.8352 57.3383)" font-family="'KaiTi'" font-size="10px">散善</text>
<text transform="matrix(1 0 0 1 210.8352 67.8383)" font-family="'KaiTi'" font-size="10px">依報</text>
<text transform="matrix(1 0 0 1 210.8352 81.8383)" font-family="'KaiTi'" font-size="10px">正報</text>
<g>
	<line fill="none" stroke="#000000" stroke-width="0.5" stroke-miterlimit="10" x1="56.1" y1="12.1" x2="56.1" y2="71.9"/>
	<line fill="none" stroke="#000000" stroke-width="0.5" stroke-miterlimit="10" x1="55.9" y1="12.1" x2="58.9" y2="12.1"/>
	<line fill="none" stroke="#000000" stroke-width="0.5" stroke-miterlimit="10" x1="55.9" y1="71.9" x2="58.9" y2="71.9"/>
	<line fill="none" stroke="#000000" stroke-width="0.5" stroke-miterlimit="10" x1="56" y1="40.6" x2="53" y2="40.6"/>
</g>
<g>
	<line fill="none" stroke="#000000" stroke-width="0.5" stroke-miterlimit="10" x1="115.4" y1="11.9" x2="118.3" y2="11.9"/>
	<line fill="none" stroke="#000000" stroke-width="0.5" stroke-miterlimit="10" x1="118.2" y1="5" x2="121.1" y2="5"/>
	<line fill="none" stroke="#000000" stroke-width="0.5" stroke-miterlimit="10" x1="118.2" y1="19.2" x2="121.1" y2="19.2"/>
	<line fill="none" stroke="#000000" stroke-width="0.5" stroke-miterlimit="10" x1="118.3" y1="4.8" x2="118.3" y2="19.4"/>
</g>
<g>
	<line fill="none" stroke="#000000" stroke-width="0.5" stroke-miterlimit="10" x1="115.3" y1="40.4" x2="118.2" y2="40.4"/>
	<line fill="none" stroke="#000000" stroke-width="0.5" stroke-miterlimit="10" x1="118.1" y1="33.5" x2="121" y2="33.5"/>
	<line fill="none" stroke="#000000" stroke-width="0.5" stroke-miterlimit="10" x1="118.1" y1="47.7" x2="121" y2="47.7"/>
	<line fill="none" stroke="#000000" stroke-width="0.5" stroke-miterlimit="10" x1="118.2" y1="33.3" x2="118.2" y2="47.9"/>
</g>
<line fill="none" stroke="#000000" stroke-width="0.5" stroke-miterlimit="10" x1="203.2" y1="47.4" x2="206.1" y2="47.4"/>
<line fill="none" stroke="#000000" stroke-width="0.5" stroke-miterlimit="10" x1="205.9" y1="40.5" x2="208.8" y2="40.5"/>
<line fill="none" stroke="#000000" stroke-width="0.5" stroke-miterlimit="10" x1="205.9" y1="54.7" x2="208.8" y2="54.7"/>
<line fill="none" stroke="#000000" stroke-width="0.5" stroke-miterlimit="10" x1="206.1" y1="40.3" x2="206.1" y2="54.9"/>
<line fill="none" stroke="#000000" stroke-width="0.5" stroke-miterlimit="10" x1="203.3" y1="71" x2="206.2" y2="71"/>
<line fill="none" stroke="#000000" stroke-width="0.5" stroke-miterlimit="10" x1="206.1" y1="64.1" x2="209" y2="64.1"/>
<line fill="none" stroke="#000000" stroke-width="0.5" stroke-miterlimit="10" x1="206.1" y1="78.3" x2="209" y2="78.3"/>
<line fill="none" stroke="#000000" stroke-width="0.5" stroke-miterlimit="10" x1="206.2" y1="63.9" x2="206.2" y2="78.5"/>
</svg>
